<?xml version="1.0" encoding="UTF-8"?>
<svg id="Layer_1" data-name="Layer 1" xmlns="http://www.w3.org/2000/svg" viewBox="0 0 1014.73 437.71">
  <defs>
    <style>
      .cls-1 {
        fill: #0b1120;
        stroke: #0f1324;
        stroke-miterlimit: 10;
      }
    </style>
  </defs>
  <path class="cls-1" d="M311.61,109.87h8.22L315.22.5H.5v8.29l14.91,5.42c7.86,2.9,12.98,6.84,15.22,11.71,2.29,5.02,3.46,11.82,3.46,20.24.43,26.12.65,52.3.65,77.81v182.47c0,25.72-.22,52.01-.65,78.15,0,8.37-1.47,15.14-4.38,20.13-2.88,4.93-8.55,8.9-16.85,11.8l-12.36,4.12v8.31h177.84v-8.33l-20.13-6.04c-16.01-5.05-23.79-15.49-23.79-31.93-.43-25.9-.65-52.95-.65-80.4v-85.15h66.1c9.55,0,16.57,2.28,20.86,6.77,4.44,4.66,8.84,10.89,13.09,18.53l14.52,25.08h8.15v-115.18h-8.17l-13.88,25.12c-4.24,8.04-8.72,14.25-13.34,18.44-4.51,4.1-11.66,6.18-21.24,6.18h-66.1v-93.87c0-31.6.21-62.74.63-92.58h102.93c9.59,0,17.18,2.3,22.56,6.85,5.47,4.64,10.38,11.05,14.61,19.07l37.12,68.38Z"/>
  <path class="cls-1" d="M529.65,398.66c-15.13,0-22.49-7.91-22.49-24.17v-123.98c0-36.8-9.28-63.77-27.57-80.18-18.26-16.38-44.46-24.68-77.86-24.68-20.57,0-39.93,2.66-57.53,7.9-17.66,5.27-32.06,13.28-42.8,23.83-10.82,10.64-16.31,23.92-16.31,39.48,0,10.37,3.32,18.75,9.88,24.91,6.53,6.15,14.89,9.27,24.86,9.27,10.73,0,19.87-3.89,27.15-11.55,7.24-7.62,11.3-19.72,12.07-35.96l1.12-6.18c1.46-13.91,4.77-23.8,9.83-29.41,5-5.54,11.9-8.34,20.52-8.34,12.62,0,22.04,5.02,27.97,14.91,6.04,10.08,9.1,27.92,9.1,53.02v43.42c-7.93,1.44-15.55,2.8-22.67,4.05-8.04,1.41-14.65,2.6-20.22,3.65-38.52,7.49-67.19,18.79-85.19,33.61-18.13,14.92-27.32,31.53-27.32,49.36,0,23.42,7.59,41.63,22.55,54.12,14.9,12.45,33.54,18.76,55.39,18.76,18.84,0,34.44-4.31,46.35-12.82,11.33-8.09,22.53-17.94,33.31-29.28,3.2,12.02,9.48,21.86,18.69,29.25,9.7,7.79,23.04,11.74,39.66,11.74,15.44,0,27.61-2.5,36.16-7.44,8.48-4.89,16.42-11.97,23.59-21.02l.63-.8-6.11-5.43h-12.75ZM359.32,386.95c-6.88-7.42-10.37-18.78-10.37-33.77,0-17.59,5.09-31.77,15.13-42.17,10.08-10.45,23.77-17.99,40.68-22.41,4.98-.76,9.2-1.5,12.9-2.24,0,0,7.47-1.49,9.93-1.99v92.43c-8.7,7.23-16.34,12.65-22.72,16.11-6.35,3.45-13.25,5.2-20.53,5.2-9.75,0-18.17-3.75-25.02-11.16Z"/>
  <path class="cls-1" d="M761.54,360.76c-10.13,12.76-20.78,22.46-31.64,28.82-10.81,6.33-25.2,9.55-42.8,9.55-29.15,0-51.01-10.11-64.98-30.05-14.06-20.05-21.19-49.49-21.19-87.49,0-43.69,6.37-75.92,18.94-95.8,12.46-19.72,30.29-29.72,52.98-29.72,5.45,0,9.77,1,12.82,2.96,2.96,1.92,5.2,6,6.65,12.12.73,5.95.73,11.88,0,17.63-.77,5.92-.96,13.18-.58,21.62,1.16,13.1,5.27,23.85,12.23,31.97,7.02,8.2,16.32,12.35,27.62,12.35,10.49,0,19.18-3.07,25.81-9.12,6.67-6.08,10.05-14.69,10.05-25.6,0-12.7-4.09-25.09-12.17-36.82-8.05-11.69-19.9-21.31-35.21-28.59-15.3-7.26-34.26-10.94-56.35-10.94-27.04,0-52.24,5.89-74.91,17.51-22.7,11.64-41.07,28.66-54.6,50.57-13.54,21.93-20.4,48.69-20.4,79.55s6.28,57.98,18.68,79.52c12.39,21.56,29.42,38.2,50.61,49.46,21.17,11.25,45.03,16.95,70.93,16.95s50.84-6.19,70.7-18.41c19.87-12.23,34.79-29.85,44.34-52.39l.32-.75-7.18-5.74-.67.84Z"/>
  <path class="cls-1" d="M1011.38,285.03c1.14-3.41,1.91-7.35,2.29-11.71.37-4.35.56-8.61.56-12.67,0-21.68-4.65-41.32-13.83-58.37-9.19-17.05-22.59-30.74-39.82-40.68-17.24-9.93-38.3-14.96-62.59-14.96s-45.64,5.69-66.75,16.9c-21.12,11.21-38.66,27.8-52.12,49.3-13.46,21.51-20.29,47.94-20.29,78.56s5.87,55.25,17.46,76.55c11.59,21.33,27.91,37.93,48.5,49.35,20.57,11.4,44.44,17.19,70.96,17.19s50.31-5.88,69.6-17.49c19.26-11.59,34.91-27.9,46.51-48.47l.42-.75-7.04-6.34-.72.82c-9.93,11.4-20.73,20.16-32.11,26.03-11.34,5.86-26.41,8.83-44.79,8.83-27.11,0-47.8-8.8-61.49-26.15-13.64-17.27-20.8-45.93-21.28-85.19h166.29l.24-.74ZM938.37,272.43h-93.53c.41-29.43,2.74-52.58,6.94-68.82,4.2-16.28,10.11-27.76,17.55-34.11,7.41-6.32,16.48-9.53,26.98-9.53,18.68,0,30.97,8.55,37.57,26.14,6.56,17.5,8.07,46.54,4.5,86.32Z"/>
</svg>