<?xml version="1.0" encoding="UTF-8"?>
<svg id="Layer_1" data-name="Layer 1" xmlns="http://www.w3.org/2000/svg" viewBox="0 0 1793.78 442.69">
  <defs>
    <style>
      .cls-1 {
        fill: #0f1324;
        stroke: #000;
        stroke-width: 10px;
      }

      .cls-1, .cls-2 {
        stroke-miterlimit: 10;
      }

      .cls-2 {
        fill: #0b1120;
        stroke: #0f1324;
      }
    </style>
  </defs>
  <g>
    <path class="cls-2" d="M311.61,114.85h8.22l-4.61-109.37H.5v8.29l14.91,5.42c7.86,2.9,12.98,6.84,15.22,11.71,2.29,5.02,3.46,11.82,3.46,20.24.43,26.12.65,52.3.65,77.81v182.47c0,25.72-.22,52.01-.65,78.15,0,8.37-1.47,15.14-4.38,20.13-2.88,4.93-8.55,8.9-16.85,11.8l-12.36,4.12v8.31h177.84v-8.33l-20.13-6.04c-16.01-5.05-23.79-15.49-23.79-31.93-.43-25.9-.65-52.95-.65-80.4v-85.15h66.1c9.55,0,16.57,2.28,20.86,6.77,4.44,4.66,8.84,10.89,13.09,18.53l14.52,25.08h8.15v-115.18h-8.17l-13.88,25.12c-4.24,8.04-8.72,14.25-13.34,18.44-4.51,4.1-11.66,6.18-21.24,6.18h-66.1v-93.87c0-31.6.21-62.74.63-92.58h102.93c9.59,0,17.18,2.3,22.56,6.85,5.47,4.64,10.38,11.05,14.61,19.07l37.12,68.38Z"/>
    <path class="cls-2" d="M529.65,403.64c-15.13,0-22.49-7.91-22.49-24.17v-123.98c0-36.8-9.28-63.77-27.57-80.18-18.26-16.38-44.46-24.68-77.86-24.68-20.57,0-39.93,2.66-57.53,7.9-17.66,5.27-32.06,13.28-42.8,23.83-10.82,10.64-16.31,23.92-16.31,39.48,0,10.37,3.32,18.75,9.88,24.91,6.53,6.15,14.89,9.27,24.86,9.27,10.73,0,19.87-3.89,27.15-11.55,7.24-7.62,11.3-19.72,12.07-35.96l1.12-6.18c1.46-13.91,4.77-23.8,9.83-29.41,5-5.54,11.9-8.34,20.52-8.34,12.62,0,22.04,5.02,27.97,14.91,6.04,10.08,9.1,27.92,9.1,53.02v43.42c-7.93,1.44-15.55,2.8-22.67,4.05-8.04,1.41-14.65,2.6-20.22,3.65-38.52,7.49-67.19,18.79-85.19,33.61-18.13,14.92-27.32,31.53-27.32,49.36,0,23.42,7.59,41.63,22.55,54.12,14.9,12.45,33.54,18.76,55.39,18.76,18.84,0,34.44-4.31,46.35-12.82,11.33-8.09,22.53-17.94,33.31-29.28,3.2,12.02,9.48,21.86,18.69,29.25,9.7,7.79,23.04,11.74,39.66,11.74,15.44,0,27.61-2.5,36.16-7.44,8.48-4.89,16.42-11.97,23.59-21.02l.63-.8-6.11-5.43h-12.75ZM359.32,391.93c-6.88-7.42-10.37-18.78-10.37-33.77,0-17.59,5.09-31.77,15.13-42.17,10.08-10.45,23.77-17.99,40.68-22.41,4.98-.76,9.2-1.5,12.9-2.24,0,0,7.47-1.49,9.93-1.99v92.43c-8.7,7.23-16.34,12.65-22.72,16.11-6.35,3.45-13.25,5.2-20.53,5.2-9.75,0-18.17-3.75-25.02-11.16Z"/>
    <path class="cls-2" d="M761.54,365.74c-10.13,12.76-20.78,22.46-31.64,28.82-10.81,6.33-25.2,9.55-42.8,9.55-29.15,0-51.01-10.11-64.98-30.05-14.06-20.05-21.19-49.49-21.19-87.49,0-43.69,6.37-75.92,18.94-95.8,12.46-19.72,30.29-29.72,52.98-29.72,5.45,0,9.77,1,12.82,2.96,2.96,1.92,5.2,6,6.65,12.12.73,5.95.73,11.88,0,17.63-.77,5.92-.96,13.18-.58,21.62,1.16,13.1,5.27,23.85,12.23,31.97,7.02,8.2,16.32,12.35,27.62,12.35,10.49,0,19.18-3.07,25.81-9.12,6.67-6.08,10.05-14.69,10.05-25.6,0-12.7-4.09-25.09-12.17-36.82-8.05-11.69-19.9-21.31-35.21-28.59-15.3-7.26-34.26-10.94-56.35-10.94-27.04,0-52.24,5.89-74.91,17.51-22.7,11.64-41.07,28.66-54.6,50.57-13.54,21.93-20.4,48.69-20.4,79.55s6.28,57.98,18.68,79.52c12.39,21.56,29.42,38.2,50.61,49.46,21.17,11.25,45.03,16.95,70.93,16.95s50.84-6.19,70.7-18.41c19.87-12.23,34.79-29.85,44.34-52.39l.32-.75-7.18-5.74-.67.84Z"/>
    <path class="cls-2" d="M1011.38,290c1.14-3.41,1.91-7.35,2.29-11.71.37-4.35.56-8.61.56-12.67,0-21.68-4.65-41.32-13.83-58.37-9.19-17.05-22.59-30.74-39.82-40.68-17.24-9.93-38.3-14.96-62.59-14.96s-45.64,5.69-66.75,16.9c-21.12,11.21-38.66,27.8-52.12,49.3-13.46,21.51-20.29,47.94-20.29,78.56s5.87,55.25,17.46,76.55c11.59,21.33,27.91,37.93,48.5,49.35,20.57,11.4,44.44,17.19,70.96,17.19s50.31-5.88,69.6-17.49c19.26-11.59,34.91-27.9,46.51-48.47l.42-.75-7.04-6.34-.72.82c-9.93,11.4-20.73,20.16-32.11,26.03-11.34,5.86-26.41,8.83-44.79,8.83-27.11,0-47.8-8.8-61.49-26.15-13.64-17.27-20.8-45.93-21.28-85.19h166.29l.24-.74ZM938.37,277.41h-93.53c.41-29.43,2.74-52.58,6.94-68.82,4.2-16.28,10.11-27.76,17.55-34.11,7.41-6.32,16.48-9.53,26.98-9.53,18.68,0,30.97,8.55,37.57,26.14,6.56,17.5,8.07,46.54,4.5,86.32Z"/>
  </g>
  <g>
    <path d="M1221.78,84.39v-48.14h29.04v6.59h-22.12v14.35h20.41v6.59h-20.28v20.61h-7.05Z"/>
    <path d="M1281.1,84.39c-2.24,0-4.19-.45-5.86-1.35-1.67-.9-2.98-2.18-3.92-3.85-.94-1.67-1.41-3.6-1.41-5.79v-30.62h-11.85v-6.45h18.96v37.07c0,1.41.39,2.51,1.18,3.33.79.81,1.87,1.22,3.23,1.22h11.19v6.45h-11.53Z"/>
    <path d="M1314.57,84.99c-2.98,0-5.57-.57-7.77-1.71-2.2-1.14-3.89-2.77-5.07-4.87-1.19-2.11-1.78-4.59-1.78-7.44v-9.35c0-2.9.59-5.39,1.78-7.47,1.18-2.08,2.87-3.7,5.07-4.84,2.2-1.14,4.79-1.71,7.77-1.71s5.57.57,7.77,1.71c2.2,1.14,3.89,2.76,5.07,4.84,1.18,2.09,1.78,4.58,1.78,7.47v9.35c0,2.85-.59,5.33-1.78,7.44-1.19,2.11-2.88,3.73-5.07,4.87-2.2,1.14-4.79,1.71-7.77,1.71ZM1314.57,78.73c2.41,0,4.28-.67,5.6-2.01,1.32-1.34,1.98-3.26,1.98-5.76v-9.35c0-2.55-.66-4.48-1.98-5.79-1.32-1.32-3.18-1.98-5.6-1.98s-4.22.66-5.56,1.98-2.01,3.25-2.01,5.79v9.35c0,2.5.67,4.42,2.01,5.76,1.34,1.34,3.19,2.01,5.56,2.01Z"/>
    <path d="M1339.3,84.39v-36.22h6.85v6.91h1.71l-2.17,4.28c0-3.91.86-6.86,2.57-8.86,1.71-2,4.26-3,7.64-3,3.86,0,6.92,1.2,9.19,3.59,2.26,2.39,3.39,5.67,3.39,9.85v2.44h-7.31v-1.84c0-2.59-.65-4.58-1.94-5.96s-3.1-2.07-5.43-2.07-4.14.7-5.43,2.11-1.94,3.38-1.94,5.93v22.85h-7.11Z"/>
    <path d="M1375.49,84.39v-6.45h12.71v-23.31h-11.06v-6.45h17.98v29.76h11.66v6.45h-31.28ZM1390.97,41.92c-1.54,0-2.77-.4-3.69-1.22-.92-.81-1.38-1.9-1.38-3.26s.46-2.51,1.38-3.33c.92-.81,2.15-1.22,3.69-1.22s2.77.41,3.69,1.22c.92.81,1.38,1.92,1.38,3.33s-.46,2.45-1.38,3.26c-.92.81-2.15,1.22-3.69,1.22Z"/>
    <path d="M1426.26,85.05c-3.65,0-6.56-1.23-8.76-3.69-2.2-2.46-3.29-5.77-3.29-9.94v-10.21c0-4.21,1.1-7.55,3.29-10.01,2.19-2.46,5.11-3.69,8.76-3.69,2.98,0,5.36.82,7.11,2.47,1.75,1.65,2.63,3.9,2.63,6.75l-1.51-1.65h1.65l-.2-8.43v-10.34h7.11v48.07h-7.05v-6.91h-1.51l1.51-1.65c0,2.85-.88,5.1-2.63,6.75-1.76,1.65-4.13,2.47-7.11,2.47ZM1428.69,78.86c2.24,0,4.01-.69,5.3-2.07,1.3-1.38,1.94-3.3,1.94-5.76v-9.48c0-2.46-.65-4.38-1.94-5.76s-3.06-2.07-5.3-2.07-4.15.67-5.46,2.01c-1.32,1.34-1.98,3.28-1.98,5.83v9.48c0,2.55.66,4.49,1.98,5.83,1.32,1.34,3.14,2.01,5.46,2.01Z"/>
    <path d="M1463.8,85.05c-3.78,0-6.75-.99-8.92-2.96-2.17-1.98-3.26-4.63-3.26-7.97s1.15-6.11,3.46-8.07,5.48-2.93,9.52-2.93h10.07v-3.36c0-1.98-.61-3.51-1.84-4.61-1.23-1.1-2.96-1.65-5.2-1.65-1.98,0-3.62.43-4.94,1.28-1.32.86-2.09,1.99-2.3,3.39h-6.98c.39-3.25,1.9-5.84,4.51-7.77,2.61-1.93,5.92-2.9,9.91-2.9,4.3,0,7.7,1.09,10.21,3.26s3.75,5.13,3.75,8.86v24.76h-6.91v-6.65h-1.19l1.19-1.32c0,2.63-1.01,4.73-3.03,6.29-2.02,1.56-4.7,2.34-8.03,2.34ZM1465.91,79.59c2.55,0,4.64-.65,6.29-1.94,1.65-1.29,2.47-2.95,2.47-4.97v-4.74h-9.94c-1.84,0-3.3.51-4.38,1.51-1.08,1.01-1.61,2.39-1.61,4.15,0,1.84.64,3.3,1.91,4.38,1.27,1.08,3.03,1.61,5.27,1.61Z"/>
    <path d="M1528.2,84.39l12.25-48.07h9.35l12.25,48.07h-7.18l-2.9-12.18h-13.63l-2.9,12.18h-7.24ZM1539.66,66.35h10.93l-3.29-13.89c-.57-2.46-1.04-4.6-1.42-6.42-.37-1.82-.63-3.06-.76-3.72-.13.66-.37,1.9-.72,3.72-.35,1.82-.83,3.94-1.45,6.35l-3.29,13.96Z"/>
    <path d="M1583.52,85.05c-2.99,0-5.61-.56-7.87-1.68-2.26-1.12-3.99-2.74-5.2-4.87-1.21-2.13-1.81-4.62-1.81-7.47v-9.48c0-2.9.6-5.4,1.81-7.51,1.21-2.11,2.94-3.72,5.2-4.84,2.26-1.12,4.88-1.68,7.87-1.68,4.35,0,7.83,1.14,10.47,3.42,2.63,2.28,4.02,5.4,4.15,9.35h-7.11c-.13-2.06-.86-3.67-2.17-4.81-1.32-1.14-3.1-1.71-5.33-1.71-2.42,0-4.32.67-5.73,2.01-1.4,1.34-2.11,3.24-2.11,5.7v9.55c0,2.46.7,4.37,2.11,5.73,1.41,1.36,3.32,2.04,5.73,2.04,2.24,0,4.02-.57,5.33-1.71,1.32-1.14,2.04-2.74,2.17-4.81h7.11c-.13,3.95-1.51,7.07-4.15,9.35-2.63,2.28-6.12,3.42-10.47,3.42Z"/>
    <path d="M1618.55,85.05c-3.78,0-6.75-.99-8.92-2.96-2.17-1.98-3.26-4.63-3.26-7.97s1.15-6.11,3.46-8.07,5.48-2.93,9.52-2.93h10.07v-3.36c0-1.98-.61-3.51-1.84-4.61-1.23-1.1-2.96-1.65-5.2-1.65-1.98,0-3.62.43-4.94,1.28-1.32.86-2.09,1.99-2.3,3.39h-6.98c.39-3.25,1.9-5.84,4.51-7.77,2.61-1.93,5.92-2.9,9.91-2.9,4.3,0,7.7,1.09,10.21,3.26s3.75,5.13,3.75,8.86v24.76h-6.91v-6.65h-1.19l1.19-1.32c0,2.63-1.01,4.73-3.03,6.29-2.02,1.56-4.7,2.34-8.03,2.34ZM1620.65,79.59c2.55,0,4.64-.65,6.29-1.94,1.65-1.29,2.47-2.95,2.47-4.97v-4.74h-9.94c-1.84,0-3.3.51-4.38,1.51-1.08,1.01-1.61,2.39-1.61,4.15,0,1.84.64,3.3,1.91,4.38,1.27,1.08,3.03,1.61,5.27,1.61Z"/>
    <path d="M1657.98,85.05c-3.65,0-6.56-1.23-8.76-3.69-2.2-2.46-3.29-5.77-3.29-9.94v-10.21c0-4.21,1.1-7.55,3.29-10.01,2.19-2.46,5.11-3.69,8.76-3.69,2.98,0,5.36.82,7.11,2.47,1.75,1.65,2.63,3.9,2.63,6.75l-1.51-1.65h1.65l-.2-8.43v-10.34h7.11v48.07h-7.05v-6.91h-1.51l1.51-1.65c0,2.85-.88,5.1-2.63,6.75-1.76,1.65-4.13,2.47-7.11,2.47ZM1660.41,78.86c2.24,0,4.01-.69,5.3-2.07,1.3-1.38,1.94-3.3,1.94-5.76v-9.48c0-2.46-.65-4.38-1.94-5.76s-3.06-2.07-5.3-2.07-4.15.67-5.46,2.01c-1.32,1.34-1.98,3.28-1.98,5.83v9.48c0,2.55.66,4.49,1.98,5.83,1.32,1.34,3.14,2.01,5.46,2.01Z"/>
    <path d="M1698.96,85.05c-2.94,0-5.52-.58-7.74-1.75-2.22-1.16-3.92-2.8-5.1-4.91-1.19-2.11-1.78-4.57-1.78-7.38v-9.48c0-2.85.59-5.32,1.78-7.41,1.18-2.08,2.88-3.71,5.1-4.87,2.21-1.16,4.79-1.75,7.74-1.75s5.57.58,7.77,1.75c2.2,1.16,3.89,2.79,5.07,4.87,1.18,2.09,1.78,4.55,1.78,7.41v6.45h-22.39v3.03c0,2.68.67,4.72,2.01,6.12,1.34,1.41,3.28,2.11,5.83,2.11,2.06,0,3.73-.36,5.01-1.09,1.27-.72,2.06-1.79,2.37-3.19h7.05c-.53,3.07-2.11,5.52-4.74,7.34-2.63,1.82-5.88,2.73-9.75,2.73ZM1706.73,63.72v-2.24c0-2.63-.66-4.68-1.98-6.12-1.32-1.45-3.25-2.17-5.79-2.17s-4.42.72-5.76,2.17c-1.34,1.45-2.01,3.51-2.01,6.19v1.65l16.07-.07-.53.59Z"/>
    <path d="M1722.17,84.39v-36.22h5.93v4.61h1.32l-.99,1.38c0-2.02.55-3.63,1.65-4.84,1.1-1.21,2.57-1.81,4.41-1.81,1.97,0,3.5.77,4.58,2.31,1.08,1.54,1.61,3.64,1.61,6.32l-1.58-3.36h2.5l-1.05,1.38c0-2.02.56-3.63,1.68-4.84,1.12-1.21,2.62-1.81,4.51-1.81,2.24,0,3.99.85,5.27,2.54,1.27,1.69,1.91,3.94,1.91,6.75v27.59h-6.32v-27.39c0-1.36-.29-2.41-.89-3.16-.59-.75-1.44-1.12-2.53-1.12s-1.94.36-2.54,1.09c-.59.72-.89,1.77-.89,3.13v27.46h-5.33v-27.39c0-1.4-.31-2.47-.92-3.19-.62-.72-1.49-1.09-2.63-1.09s-1.92.36-2.47,1.09c-.55.72-.82,1.77-.82,3.13v27.46h-6.39Z"/>
    <path d="M1768.63,96.25l5.2-13.96-13.5-34.11h7.84l7.57,20.41c.31.88.61,1.93.92,3.16.31,1.23.57,2.24.79,3.03.18-.79.42-1.8.73-3.03.31-1.23.61-2.28.92-3.16l7.11-20.41h7.57l-17.65,48.07h-7.51Z"/>
    <path d="M1235.74,164.01c-2.98,0-5.57-.57-7.77-1.71-2.2-1.14-3.89-2.77-5.07-4.87-1.19-2.11-1.78-4.59-1.78-7.44v-9.35c0-2.9.59-5.39,1.78-7.47,1.18-2.08,2.87-3.7,5.07-4.84,2.2-1.14,4.79-1.71,7.77-1.71s5.57.57,7.77,1.71c2.2,1.14,3.89,2.76,5.07,4.84,1.18,2.09,1.78,4.58,1.78,7.47v9.35c0,2.85-.59,5.33-1.78,7.44-1.19,2.11-2.88,3.73-5.07,4.87-2.2,1.14-4.79,1.71-7.77,1.71ZM1235.74,157.75c2.41,0,4.28-.67,5.6-2.01,1.32-1.34,1.98-3.26,1.98-5.76v-9.35c0-2.55-.66-4.48-1.98-5.79-1.32-1.32-3.18-1.98-5.6-1.98s-4.22.66-5.56,1.98-2.01,3.25-2.01,5.79v9.35c0,2.5.67,4.42,2.01,5.76,1.34,1.34,3.19,2.01,5.56,2.01Z"/>
    <path d="M1268.86,163.41v-25.94h-10.27v-6.45h10.27v-5.86c0-3.03.96-5.42,2.9-7.18,1.93-1.76,4.57-2.63,7.9-2.63h10.6v6.32h-10.47c-1.23,0-2.18.31-2.86.92-.68.62-1.02,1.49-1.02,2.63v5.79h14.36v6.45h-14.36v25.94h-7.05Z"/>
    <path d="M1352.56,164.07c-2.99,0-5.59-.56-7.8-1.68-2.22-1.12-3.93-2.74-5.14-4.87-1.21-2.13-1.81-4.62-1.81-7.47v-21.34c0-2.9.6-5.4,1.81-7.51,1.21-2.11,2.92-3.72,5.14-4.84,2.22-1.12,4.82-1.68,7.8-1.68s5.57.57,7.77,1.71c2.19,1.14,3.89,2.76,5.1,4.84,1.21,2.09,1.81,4.58,1.81,7.47h-7.11c0-2.5-.66-4.41-1.98-5.73s-3.18-1.98-5.6-1.98-4.29.66-5.63,1.98c-1.34,1.32-2.01,3.2-2.01,5.66v21.4c0,2.46.67,4.36,2.01,5.7,1.34,1.34,3.22,2.01,5.63,2.01s4.28-.67,5.6-2.01c1.32-1.34,1.98-3.24,1.98-5.7h7.11c0,2.85-.6,5.33-1.81,7.44-1.21,2.11-2.91,3.73-5.1,4.87-2.2,1.14-4.79,1.71-7.77,1.71Z"/>
    <path d="M1390.47,164.07c-4.35,0-7.81-1.26-10.4-3.79-2.59-2.52-3.89-5.96-3.89-10.31v-22.78h7.11v22.78c0,2.5.64,4.45,1.91,5.83,1.27,1.38,3.03,2.07,5.27,2.07s4.07-.69,5.37-2.07c1.29-1.38,1.94-3.33,1.94-5.83v-22.78h7.11v22.78c0,4.35-1.31,7.78-3.92,10.31-2.61,2.52-6.11,3.79-10.5,3.79Z"/>
    <path d="M1429.57,163.41c-2.24,0-4.19-.45-5.86-1.35-1.67-.9-2.98-2.18-3.92-3.85-.94-1.67-1.41-3.6-1.41-5.79v-30.62h-11.85v-6.45h18.96v37.07c0,1.41.39,2.51,1.18,3.33.79.81,1.87,1.22,3.23,1.22h11.19v6.45h-11.53Z"/>
    <path d="M1463.23,163.41c-3.29,0-5.86-.9-7.7-2.7-1.84-1.8-2.77-4.3-2.77-7.51v-19.56h-10.01v-6.45h10.01v-10.21h7.11v10.21h14.16v6.45h-14.16v19.56c0,2.5,1.21,3.75,3.62,3.75h9.88v6.45h-10.14Z"/>
    <path d="M1497.33,164.07c-4.35,0-7.81-1.26-10.4-3.79-2.59-2.52-3.89-5.96-3.89-10.31v-22.78h7.11v22.78c0,2.5.64,4.45,1.91,5.83,1.27,1.38,3.03,2.07,5.27,2.07s4.07-.69,5.37-2.07c1.29-1.38,1.94-3.33,1.94-5.83v-22.78h7.11v22.78c0,4.35-1.31,7.78-3.92,10.31-2.61,2.52-6.11,3.79-10.5,3.79Z"/>
    <path d="M1522.24,163.41v-36.22h6.85v6.91h1.71l-2.17,4.28c0-3.91.86-6.86,2.57-8.86,1.71-2,4.26-3,7.64-3,3.86,0,6.92,1.2,9.19,3.59,2.26,2.39,3.39,5.67,3.39,9.85v2.44h-7.31v-1.84c0-2.59-.65-4.58-1.94-5.96s-3.1-2.07-5.43-2.07-4.14.7-5.43,2.11-1.94,3.38-1.94,5.93v22.85h-7.11Z"/>
    <path d="M1574.22,164.07c-2.94,0-5.52-.58-7.74-1.75-2.22-1.16-3.92-2.8-5.1-4.91-1.19-2.11-1.78-4.57-1.78-7.38v-9.48c0-2.85.59-5.32,1.78-7.41,1.18-2.08,2.88-3.71,5.1-4.87,2.21-1.16,4.79-1.75,7.74-1.75s5.57.58,7.77,1.75c2.2,1.16,3.89,2.79,5.07,4.87,1.18,2.09,1.78,4.55,1.78,7.41v6.45h-22.39v3.03c0,2.68.67,4.72,2.01,6.12,1.34,1.41,3.28,2.11,5.83,2.11,2.06,0,3.73-.36,5.01-1.09,1.27-.72,2.06-1.79,2.37-3.19h7.05c-.53,3.07-2.11,5.52-4.74,7.34-2.63,1.82-5.88,2.73-9.75,2.73ZM1581.99,142.74v-2.24c0-2.63-.66-4.68-1.98-6.12-1.32-1.45-3.25-2.17-5.79-2.17s-4.42.72-5.76,2.17c-1.34,1.45-2.01,3.51-2.01,6.19v1.65l16.07-.07-.53.59Z"/>
    <path d="M1648.3,164.07c-3.78,0-6.75-.99-8.92-2.96-2.17-1.98-3.26-4.63-3.26-7.97s1.15-6.11,3.46-8.07c2.3-1.95,5.48-2.93,9.52-2.93h10.07v-3.36c0-1.98-.61-3.51-1.84-4.61-1.23-1.1-2.96-1.65-5.2-1.65-1.98,0-3.62.43-4.94,1.28-1.32.86-2.09,1.99-2.3,3.39h-6.98c.39-3.25,1.9-5.84,4.51-7.77,2.61-1.93,5.92-2.9,9.91-2.9,4.3,0,7.7,1.09,10.21,3.26s3.75,5.13,3.75,8.86v24.76h-6.91v-6.65h-1.19l1.19-1.32c0,2.63-1.01,4.73-3.03,6.29-2.02,1.56-4.7,2.34-8.03,2.34ZM1650.41,158.61c2.55,0,4.64-.65,6.29-1.94,1.65-1.29,2.47-2.95,2.47-4.97v-4.74h-9.94c-1.84,0-3.3.51-4.38,1.51-1.08,1.01-1.61,2.39-1.61,4.15,0,1.84.64,3.3,1.91,4.38,1.27,1.08,3.03,1.61,5.27,1.61Z"/>
    <path d="M1676.23,163.41v-36.22h7.05v6.91h1.71l-1.71,1.65c0-2.9.86-5.16,2.57-6.78,1.71-1.62,4.08-2.44,7.11-2.44,3.6,0,6.48,1.15,8.63,3.46,2.15,2.31,3.23,5.41,3.23,9.32v24.1h-7.11v-23.31c0-2.37-.64-4.19-1.91-5.47-1.27-1.27-3.01-1.91-5.2-1.91s-4.01.67-5.3,2.01c-1.3,1.34-1.94,3.28-1.94,5.83v22.85h-7.11Z"/>
    <path d="M1726.26,164.07c-3.65,0-6.56-1.23-8.76-3.69-2.2-2.46-3.29-5.77-3.29-9.94v-10.21c0-4.21,1.1-7.55,3.29-10.01,2.19-2.46,5.11-3.69,8.76-3.69,2.98,0,5.36.82,7.11,2.47,1.75,1.65,2.63,3.9,2.63,6.75l-1.51-1.65h1.65l-.2-8.43v-10.34h7.11v48.07h-7.05v-6.91h-1.51l1.51-1.65c0,2.85-.88,5.1-2.63,6.75-1.76,1.65-4.13,2.47-7.11,2.47ZM1728.7,157.88c2.24,0,4.01-.69,5.3-2.07,1.3-1.38,1.94-3.3,1.94-5.76v-9.48c0-2.46-.65-4.38-1.94-5.76s-3.06-2.07-5.3-2.07-4.15.67-5.46,2.01c-1.32,1.34-1.98,3.28-1.98,5.83v9.48c0,2.55.66,4.49,1.98,5.83,1.32,1.34,3.14,2.01,5.46,2.01Z"/>
    <path d="M1222.18,242.43v-48.07h28.25v6.32h-21.27v13.63h18.96v6.26h-18.96v15.54h21.27v6.32h-28.25Z"/>
    <path d="M1270.97,243.09c-3.65,0-6.56-1.23-8.76-3.69-2.2-2.46-3.29-5.77-3.29-9.94v-10.21c0-4.21,1.1-7.55,3.29-10.01,2.19-2.46,5.11-3.69,8.76-3.69,2.98,0,5.36.82,7.11,2.47,1.75,1.65,2.63,3.9,2.63,6.75l-1.51-1.65h1.65l-.2-8.43v-10.34h7.11v48.07h-7.05v-6.91h-1.51l1.51-1.65c0,2.85-.88,5.1-2.63,6.75-1.76,1.65-4.13,2.47-7.11,2.47ZM1273.4,236.9c2.24,0,4.01-.69,5.3-2.07,1.3-1.38,1.94-3.3,1.94-5.76v-9.48c0-2.46-.65-4.38-1.94-5.76s-3.06-2.07-5.3-2.07-4.15.67-5.46,2.01c-1.32,1.34-1.98,3.28-1.98,5.83v9.48c0,2.55.66,4.49,1.98,5.83,1.32,1.34,3.14,2.01,5.46,2.01Z"/>
    <path d="M1312,243.09c-4.35,0-7.81-1.26-10.4-3.79-2.59-2.52-3.89-5.96-3.89-10.31v-22.78h7.11v22.78c0,2.5.64,4.45,1.91,5.83,1.27,1.38,3.03,2.07,5.27,2.07s4.07-.69,5.37-2.07c1.29-1.38,1.94-3.33,1.94-5.83v-22.78h7.11v22.78c0,4.35-1.31,7.78-3.92,10.31-2.61,2.52-6.11,3.79-10.5,3.79Z"/>
    <path d="M1350.54,243.09c-2.99,0-5.61-.56-7.87-1.68-2.26-1.12-3.99-2.74-5.2-4.87-1.21-2.13-1.81-4.62-1.81-7.47v-9.48c0-2.9.6-5.4,1.81-7.51,1.21-2.11,2.94-3.72,5.2-4.84,2.26-1.12,4.88-1.68,7.87-1.68,4.35,0,7.83,1.14,10.47,3.42,2.63,2.28,4.02,5.4,4.15,9.35h-7.11c-.13-2.06-.86-3.67-2.17-4.81-1.32-1.14-3.1-1.71-5.33-1.71-2.42,0-4.32.67-5.73,2.01-1.4,1.34-2.11,3.24-2.11,5.7v9.55c0,2.46.7,4.37,2.11,5.73,1.41,1.36,3.32,2.04,5.73,2.04,2.24,0,4.02-.57,5.33-1.71,1.32-1.14,2.04-2.74,2.17-4.81h7.11c-.13,3.95-1.51,7.07-4.15,9.35-2.63,2.28-6.12,3.42-10.47,3.42Z"/>
    <path d="M1385.57,243.09c-3.78,0-6.75-.99-8.92-2.96-2.17-1.98-3.26-4.63-3.26-7.97s1.15-6.11,3.46-8.07,5.48-2.93,9.52-2.93h10.07v-3.36c0-1.98-.61-3.51-1.84-4.61-1.23-1.1-2.96-1.65-5.2-1.65-1.98,0-3.62.43-4.94,1.28-1.32.86-2.09,1.99-2.3,3.39h-6.98c.39-3.25,1.9-5.84,4.51-7.77,2.61-1.93,5.92-2.9,9.91-2.9,4.3,0,7.7,1.09,10.21,3.26,2.5,2.17,3.75,5.13,3.75,8.86v24.76h-6.91v-6.65h-1.19l1.19-1.32c0,2.63-1.01,4.73-3.03,6.29-2.02,1.56-4.7,2.34-8.03,2.34ZM1387.67,237.63c2.55,0,4.64-.65,6.29-1.94,1.65-1.29,2.47-2.95,2.47-4.97v-4.74h-9.94c-1.84,0-3.3.51-4.38,1.51-1.08,1.01-1.61,2.39-1.61,4.15,0,1.84.64,3.3,1.91,4.38,1.27,1.08,3.03,1.61,5.27,1.61Z"/>
    <path d="M1431.85,242.43c-3.29,0-5.86-.9-7.7-2.7-1.84-1.8-2.77-4.3-2.77-7.51v-19.56h-10.01v-6.45h10.01v-10.21h7.11v10.21h14.16v6.45h-14.16v19.56c0,2.5,1.21,3.75,3.62,3.75h9.88v6.45h-10.14Z"/>
    <path d="M1451.26,242.43v-6.45h12.71v-23.31h-11.06v-6.45h17.98v29.76h11.66v6.45h-31.28ZM1466.73,199.96c-1.54,0-2.77-.4-3.69-1.22-.92-.81-1.38-1.9-1.38-3.26s.46-2.51,1.38-3.33c.92-.81,2.15-1.22,3.69-1.22s2.77.41,3.69,1.22c.92.81,1.38,1.92,1.38,3.33s-.46,2.45-1.38,3.26c-.92.81-2.15,1.22-3.69,1.22Z"/>
    <path d="M1504.46,243.03c-2.98,0-5.57-.57-7.77-1.71-2.2-1.14-3.89-2.77-5.07-4.87-1.19-2.11-1.78-4.59-1.78-7.44v-9.35c0-2.9.59-5.39,1.78-7.47,1.18-2.08,2.87-3.7,5.07-4.84,2.2-1.14,4.79-1.71,7.77-1.71s5.57.57,7.77,1.71c2.2,1.14,3.89,2.76,5.07,4.84,1.18,2.09,1.78,4.58,1.78,7.47v9.35c0,2.85-.59,5.33-1.78,7.44-1.19,2.11-2.88,3.73-5.07,4.87-2.2,1.14-4.79,1.71-7.77,1.71ZM1504.46,236.77c2.41,0,4.28-.67,5.6-2.01,1.32-1.34,1.98-3.26,1.98-5.76v-9.35c0-2.55-.66-4.48-1.98-5.79-1.32-1.32-3.18-1.98-5.6-1.98s-4.22.66-5.56,1.98c-1.34,1.32-2.01,3.25-2.01,5.79v9.35c0,2.5.67,4.42,2.01,5.76,1.34,1.34,3.19,2.01,5.56,2.01Z"/>
    <path d="M1528.61,242.43v-36.22h7.05v6.91h1.71l-1.71,1.65c0-2.9.86-5.16,2.57-6.78,1.71-1.62,4.08-2.44,7.11-2.44,3.6,0,6.48,1.15,8.63,3.46,2.15,2.31,3.23,5.41,3.23,9.32v24.1h-7.11v-23.31c0-2.37-.64-4.19-1.91-5.47-1.27-1.27-3.01-1.91-5.2-1.91s-4.01.67-5.3,2.01c-1.3,1.34-1.94,3.28-1.94,5.83v22.85h-7.11Z"/>
  </g>
  <line class="cls-1" x1="1137.47" x2="1137.47" y2="272.81"/>
</svg>